<mxfile host="Electron" agent="Mozilla/5.0 (Windows NT 10.0; Win64; x64) AppleWebKit/537.36 (KHTML, like Gecko) draw.io/26.0.4 Chrome/128.0.6613.186 Electron/32.2.5 Safari/537.36" version="26.0.4" pages="2">
  <diagram name="Setup" id="YPokfU4eWLuIt0w3OUwx">
    <mxGraphModel dx="627" dy="565" grid="1" gridSize="10" guides="1" tooltips="1" connect="1" arrows="1" fold="1" page="1" pageScale="1" pageWidth="850" pageHeight="1100" math="0" shadow="0">
      <root>
        <mxCell id="0" />
        <mxCell id="1" parent="0" />
        <mxCell id="x3CsAzkfvRGz-bcJTIct-1" value="" style="rounded=0;whiteSpace=wrap;html=1;fillColor=none;" vertex="1" parent="1">
          <mxGeometry x="280" y="280" width="120" height="80" as="geometry" />
        </mxCell>
        <mxCell id="x3CsAzkfvRGz-bcJTIct-2" value="KeyCloak" style="text;html=1;align=center;verticalAlign=middle;whiteSpace=wrap;rounded=0;" vertex="1" parent="1">
          <mxGeometry x="310" y="305" width="60" height="30" as="geometry" />
        </mxCell>
        <mxCell id="x3CsAzkfvRGz-bcJTIct-17" style="edgeStyle=orthogonalEdgeStyle;rounded=0;orthogonalLoop=1;jettySize=auto;html=1;exitX=0;exitY=0.5;exitDx=0;exitDy=0;entryX=1;entryY=0.5;entryDx=0;entryDy=0;fillColor=#f8cecc;strokeColor=#b85450;startArrow=classic;startFill=1;" edge="1" parent="1" source="x3CsAzkfvRGz-bcJTIct-5" target="x3CsAzkfvRGz-bcJTIct-1">
          <mxGeometry relative="1" as="geometry" />
        </mxCell>
        <mxCell id="x3CsAzkfvRGz-bcJTIct-18" value="JWT Token Check" style="edgeLabel;html=1;align=center;verticalAlign=middle;resizable=0;points=[];fontColor=#FF0080;" vertex="1" connectable="0" parent="x3CsAzkfvRGz-bcJTIct-17">
          <mxGeometry x="-0.1633" y="-1" relative="1" as="geometry">
            <mxPoint x="-10" y="1" as="offset" />
          </mxGeometry>
        </mxCell>
        <mxCell id="x3CsAzkfvRGz-bcJTIct-5" value="" style="rounded=0;whiteSpace=wrap;html=1;fillColor=none;" vertex="1" parent="1">
          <mxGeometry x="520" y="280" width="120" height="80" as="geometry" />
        </mxCell>
        <mxCell id="x3CsAzkfvRGz-bcJTIct-6" value="API" style="text;html=1;align=center;verticalAlign=middle;whiteSpace=wrap;rounded=0;" vertex="1" parent="1">
          <mxGeometry x="550" y="305" width="60" height="30" as="geometry" />
        </mxCell>
        <mxCell id="x3CsAzkfvRGz-bcJTIct-11" style="edgeStyle=orthogonalEdgeStyle;rounded=0;orthogonalLoop=1;jettySize=auto;html=1;exitX=0.25;exitY=0;exitDx=0;exitDy=0;entryX=0.5;entryY=1;entryDx=0;entryDy=0;fillColor=#f8cecc;strokeColor=#b85450;" edge="1" parent="1" source="x3CsAzkfvRGz-bcJTIct-7" target="x3CsAzkfvRGz-bcJTIct-1">
          <mxGeometry relative="1" as="geometry" />
        </mxCell>
        <mxCell id="x3CsAzkfvRGz-bcJTIct-12" value="Signin via OIDC" style="edgeLabel;html=1;align=center;verticalAlign=middle;resizable=0;points=[];fontColor=#FF0080;" vertex="1" connectable="0" parent="x3CsAzkfvRGz-bcJTIct-11">
          <mxGeometry x="-0.13" relative="1" as="geometry">
            <mxPoint x="-13" as="offset" />
          </mxGeometry>
        </mxCell>
        <mxCell id="x3CsAzkfvRGz-bcJTIct-13" style="edgeStyle=orthogonalEdgeStyle;rounded=0;orthogonalLoop=1;jettySize=auto;html=1;exitX=0.75;exitY=0;exitDx=0;exitDy=0;entryX=0.5;entryY=1;entryDx=0;entryDy=0;" edge="1" parent="1" source="x3CsAzkfvRGz-bcJTIct-7" target="x3CsAzkfvRGz-bcJTIct-5">
          <mxGeometry relative="1" as="geometry" />
        </mxCell>
        <mxCell id="x3CsAzkfvRGz-bcJTIct-14" value="HTTP(S) REST Calls" style="edgeLabel;html=1;align=center;verticalAlign=middle;resizable=0;points=[];" vertex="1" connectable="0" parent="x3CsAzkfvRGz-bcJTIct-13">
          <mxGeometry x="0.1566" y="-1" relative="1" as="geometry">
            <mxPoint x="-17" as="offset" />
          </mxGeometry>
        </mxCell>
        <mxCell id="x3CsAzkfvRGz-bcJTIct-7" value="" style="rounded=0;whiteSpace=wrap;html=1;fillColor=none;" vertex="1" parent="1">
          <mxGeometry x="390" y="480" width="120" height="80" as="geometry" />
        </mxCell>
        <mxCell id="x3CsAzkfvRGz-bcJTIct-8" value="Frontend" style="text;html=1;align=center;verticalAlign=middle;whiteSpace=wrap;rounded=0;" vertex="1" parent="1">
          <mxGeometry x="420" y="505" width="60" height="30" as="geometry" />
        </mxCell>
        <mxCell id="x3CsAzkfvRGz-bcJTIct-9" value="Database" style="shape=cylinder3;whiteSpace=wrap;html=1;boundedLbl=1;backgroundOutline=1;size=15;" vertex="1" parent="1">
          <mxGeometry x="550" y="120" width="60" height="80" as="geometry" />
        </mxCell>
        <mxCell id="x3CsAzkfvRGz-bcJTIct-16" style="edgeStyle=orthogonalEdgeStyle;rounded=0;orthogonalLoop=1;jettySize=auto;html=1;exitX=0.5;exitY=1;exitDx=0;exitDy=0;exitPerimeter=0;entryX=0.5;entryY=0;entryDx=0;entryDy=0;startArrow=classic;startFill=1;" edge="1" parent="1" source="x3CsAzkfvRGz-bcJTIct-10" target="x3CsAzkfvRGz-bcJTIct-1">
          <mxGeometry relative="1" as="geometry" />
        </mxCell>
        <mxCell id="x3CsAzkfvRGz-bcJTIct-10" value="Database" style="shape=cylinder3;whiteSpace=wrap;html=1;boundedLbl=1;backgroundOutline=1;size=15;" vertex="1" parent="1">
          <mxGeometry x="310" y="120" width="60" height="80" as="geometry" />
        </mxCell>
        <mxCell id="x3CsAzkfvRGz-bcJTIct-15" style="edgeStyle=orthogonalEdgeStyle;rounded=0;orthogonalLoop=1;jettySize=auto;html=1;exitX=0.5;exitY=0;exitDx=0;exitDy=0;entryX=0.5;entryY=1;entryDx=0;entryDy=0;entryPerimeter=0;startArrow=classic;startFill=1;" edge="1" parent="1" source="x3CsAzkfvRGz-bcJTIct-5" target="x3CsAzkfvRGz-bcJTIct-9">
          <mxGeometry relative="1" as="geometry" />
        </mxCell>
      </root>
    </mxGraphModel>
  </diagram>
  <diagram id="4dqTGk5QS8s1TWfLcTW-" name="Architektur">
    <mxGraphModel dx="1185" dy="683" grid="1" gridSize="10" guides="1" tooltips="1" connect="1" arrows="1" fold="1" page="1" pageScale="1" pageWidth="850" pageHeight="1100" math="0" shadow="0">
      <root>
        <mxCell id="0" />
        <mxCell id="1" parent="0" />
        <mxCell id="Hx9Hivt2Ttf5M3OkNa_k-202" value="" style="group" vertex="1" connectable="0" parent="1">
          <mxGeometry x="40" y="440" width="640" height="400" as="geometry" />
        </mxCell>
        <mxCell id="Hx9Hivt2Ttf5M3OkNa_k-144" value="" style="rounded=0;whiteSpace=wrap;html=1;fillColor=none;" vertex="1" parent="Hx9Hivt2Ttf5M3OkNa_k-202">
          <mxGeometry y="40" width="640" height="360" as="geometry" />
        </mxCell>
        <mxCell id="Hx9Hivt2Ttf5M3OkNa_k-15" value="" style="rounded=0;whiteSpace=wrap;html=1;fillColor=none;" vertex="1" parent="Hx9Hivt2Ttf5M3OkNa_k-202">
          <mxGeometry x="120" y="80" width="520" height="320" as="geometry" />
        </mxCell>
        <mxCell id="Hx9Hivt2Ttf5M3OkNa_k-19" value="Not Found Page" style="text;html=1;align=center;verticalAlign=middle;whiteSpace=wrap;rounded=0;fontSize=24;" vertex="1" parent="Hx9Hivt2Ttf5M3OkNa_k-202">
          <mxGeometry width="240" height="40" as="geometry" />
        </mxCell>
        <mxCell id="Hx9Hivt2Ttf5M3OkNa_k-24" value="path" style="rounded=0;whiteSpace=wrap;html=1;" vertex="1" parent="Hx9Hivt2Ttf5M3OkNa_k-202">
          <mxGeometry x="320" y="190" width="120" height="20" as="geometry" />
        </mxCell>
        <mxCell id="Hx9Hivt2Ttf5M3OkNa_k-25" value="Title" style="rounded=0;whiteSpace=wrap;html=1;" vertex="1" parent="Hx9Hivt2Ttf5M3OkNa_k-202">
          <mxGeometry x="320" y="220" width="120" height="20" as="geometry" />
        </mxCell>
        <mxCell id="Hx9Hivt2Ttf5M3OkNa_k-26" value="Error Description" style="rounded=0;whiteSpace=wrap;html=1;" vertex="1" parent="Hx9Hivt2Ttf5M3OkNa_k-202">
          <mxGeometry x="265" y="250" width="230" height="20" as="geometry" />
        </mxCell>
        <mxCell id="Hx9Hivt2Ttf5M3OkNa_k-203" value="" style="group" vertex="1" connectable="0" parent="1">
          <mxGeometry x="40" y="880" width="1060" height="400" as="geometry" />
        </mxCell>
        <mxCell id="Hx9Hivt2Ttf5M3OkNa_k-16" value="" style="rounded=0;whiteSpace=wrap;html=1;fillColor=none;" vertex="1" parent="Hx9Hivt2Ttf5M3OkNa_k-203">
          <mxGeometry x="120" y="80" width="520" height="320" as="geometry" />
        </mxCell>
        <mxCell id="Hx9Hivt2Ttf5M3OkNa_k-143" value="" style="rounded=0;whiteSpace=wrap;html=1;fillColor=none;" vertex="1" parent="Hx9Hivt2Ttf5M3OkNa_k-203">
          <mxGeometry y="40" width="640" height="360" as="geometry" />
        </mxCell>
        <mxCell id="Hx9Hivt2Ttf5M3OkNa_k-30" value="Stops Page" style="text;html=1;align=center;verticalAlign=middle;whiteSpace=wrap;rounded=0;fontSize=24;" vertex="1" parent="Hx9Hivt2Ttf5M3OkNa_k-203">
          <mxGeometry width="240" height="40" as="geometry" />
        </mxCell>
        <mxCell id="Hx9Hivt2Ttf5M3OkNa_k-42" value="Title" style="rounded=0;whiteSpace=wrap;html=1;fillColor=#d5e8d4;strokeColor=#82b366;" vertex="1" parent="Hx9Hivt2Ttf5M3OkNa_k-203">
          <mxGeometry x="280" y="120" width="200" height="40" as="geometry" />
        </mxCell>
        <mxCell id="Hx9Hivt2Ttf5M3OkNa_k-45" value="Create Stop Button" style="rounded=0;whiteSpace=wrap;html=1;" vertex="1" parent="Hx9Hivt2Ttf5M3OkNa_k-203">
          <mxGeometry x="280" y="180" width="200" height="30" as="geometry" />
        </mxCell>
        <mxCell id="Hx9Hivt2Ttf5M3OkNa_k-46" value="Existing Stops Table" style="rounded=0;whiteSpace=wrap;html=1;" vertex="1" parent="Hx9Hivt2Ttf5M3OkNa_k-203">
          <mxGeometry x="240" y="240" width="280" height="20" as="geometry" />
        </mxCell>
        <mxCell id="Hx9Hivt2Ttf5M3OkNa_k-47" value="TABLE HEADER" style="rounded=0;whiteSpace=wrap;html=1;" vertex="1" parent="Hx9Hivt2Ttf5M3OkNa_k-203">
          <mxGeometry x="240" y="260" width="280" height="20" as="geometry" />
        </mxCell>
        <mxCell id="Hx9Hivt2Ttf5M3OkNa_k-48" value="name" style="text;html=1;align=center;verticalAlign=middle;whiteSpace=wrap;rounded=0;" vertex="1" parent="Hx9Hivt2Ttf5M3OkNa_k-203">
          <mxGeometry x="240" y="280" width="60" height="10" as="geometry" />
        </mxCell>
        <mxCell id="Hx9Hivt2Ttf5M3OkNa_k-49" value="short name" style="text;html=1;align=center;verticalAlign=middle;whiteSpace=wrap;rounded=0;" vertex="1" parent="Hx9Hivt2Ttf5M3OkNa_k-203">
          <mxGeometry x="313" y="280" width="60" height="10" as="geometry" />
        </mxCell>
        <mxCell id="Hx9Hivt2Ttf5M3OkNa_k-50" value="coordinates" style="text;html=1;align=center;verticalAlign=middle;whiteSpace=wrap;rounded=0;" vertex="1" parent="Hx9Hivt2Ttf5M3OkNa_k-203">
          <mxGeometry x="387" y="280" width="60" height="10" as="geometry" />
        </mxCell>
        <mxCell id="Hx9Hivt2Ttf5M3OkNa_k-51" value="actions" style="text;html=1;align=center;verticalAlign=middle;whiteSpace=wrap;rounded=0;" vertex="1" parent="Hx9Hivt2Ttf5M3OkNa_k-203">
          <mxGeometry x="460" y="280" width="60" height="10" as="geometry" />
        </mxCell>
        <mxCell id="Hx9Hivt2Ttf5M3OkNa_k-54" value="&lt;font&gt;Delete Button&lt;/font&gt;" style="rounded=0;whiteSpace=wrap;html=1;horizontal=1;fontSize=6;" vertex="1" parent="Hx9Hivt2Ttf5M3OkNa_k-203">
          <mxGeometry x="470" y="300" width="20" height="20" as="geometry" />
        </mxCell>
        <mxCell id="Hx9Hivt2Ttf5M3OkNa_k-55" value="&lt;font&gt;Edit Button&lt;/font&gt;" style="rounded=0;whiteSpace=wrap;html=1;horizontal=1;fontSize=6;" vertex="1" parent="Hx9Hivt2Ttf5M3OkNa_k-203">
          <mxGeometry x="495" y="300" width="20" height="20" as="geometry" />
        </mxCell>
        <mxCell id="Hx9Hivt2Ttf5M3OkNa_k-56" value="Error Snackbar" style="rounded=0;whiteSpace=wrap;html=1;fillColor=#dae8fc;strokeColor=#6c8ebf;fillStyle=cross-hatch;" vertex="1" parent="Hx9Hivt2Ttf5M3OkNa_k-203">
          <mxGeometry x="240" y="370" width="280" height="20" as="geometry" />
        </mxCell>
        <mxCell id="Hx9Hivt2Ttf5M3OkNa_k-57" value="Create Stop Dialog" style="rounded=0;whiteSpace=wrap;html=1;fillColor=#e1d5e7;strokeColor=default;fillStyle=dots;" vertex="1" parent="Hx9Hivt2Ttf5M3OkNa_k-203">
          <mxGeometry x="680" y="120" width="180" height="240" as="geometry" />
        </mxCell>
        <mxCell id="Hx9Hivt2Ttf5M3OkNa_k-58" value="Error Snackbar" style="rounded=0;whiteSpace=wrap;html=1;fillColor=#dae8fc;strokeColor=#6c8ebf;fillStyle=cross-hatch;" vertex="1" parent="Hx9Hivt2Ttf5M3OkNa_k-203">
          <mxGeometry x="680" y="370" width="180" height="20" as="geometry" />
        </mxCell>
        <mxCell id="Hx9Hivt2Ttf5M3OkNa_k-59" value="Name" style="rounded=0;whiteSpace=wrap;html=1;" vertex="1" parent="Hx9Hivt2Ttf5M3OkNa_k-203">
          <mxGeometry x="690" y="160" width="160" height="30" as="geometry" />
        </mxCell>
        <mxCell id="Hx9Hivt2Ttf5M3OkNa_k-60" value="Short Name" style="rounded=0;whiteSpace=wrap;html=1;" vertex="1" parent="Hx9Hivt2Ttf5M3OkNa_k-203">
          <mxGeometry x="690" y="200" width="160" height="30" as="geometry" />
        </mxCell>
        <mxCell id="Hx9Hivt2Ttf5M3OkNa_k-61" value="Latitude" style="rounded=0;whiteSpace=wrap;html=1;" vertex="1" parent="Hx9Hivt2Ttf5M3OkNa_k-203">
          <mxGeometry x="690" y="250" width="160" height="30" as="geometry" />
        </mxCell>
        <mxCell id="Hx9Hivt2Ttf5M3OkNa_k-62" value="Longitude" style="rounded=0;whiteSpace=wrap;html=1;" vertex="1" parent="Hx9Hivt2Ttf5M3OkNa_k-203">
          <mxGeometry x="690" y="290" width="160" height="30" as="geometry" />
        </mxCell>
        <mxCell id="Hx9Hivt2Ttf5M3OkNa_k-63" value="Title" style="text;html=1;align=center;verticalAlign=middle;whiteSpace=wrap;rounded=0;fontStyle=1" vertex="1" parent="Hx9Hivt2Ttf5M3OkNa_k-203">
          <mxGeometry x="690" y="130" width="60" height="30" as="geometry" />
        </mxCell>
        <mxCell id="Hx9Hivt2Ttf5M3OkNa_k-64" value="OK" style="rounded=0;whiteSpace=wrap;html=1;" vertex="1" parent="Hx9Hivt2Ttf5M3OkNa_k-203">
          <mxGeometry x="800" y="330" width="50" height="20" as="geometry" />
        </mxCell>
        <mxCell id="Hx9Hivt2Ttf5M3OkNa_k-65" value="Cancel" style="rounded=0;whiteSpace=wrap;html=1;" vertex="1" parent="Hx9Hivt2Ttf5M3OkNa_k-203">
          <mxGeometry x="740" y="330" width="50" height="20" as="geometry" />
        </mxCell>
        <mxCell id="Hx9Hivt2Ttf5M3OkNa_k-75" value="Update Stop Dialog" style="rounded=0;whiteSpace=wrap;html=1;fillColor=#e1d5e7;strokeColor=default;fillStyle=dots;" vertex="1" parent="Hx9Hivt2Ttf5M3OkNa_k-203">
          <mxGeometry x="880" y="120" width="180" height="240" as="geometry" />
        </mxCell>
        <mxCell id="Hx9Hivt2Ttf5M3OkNa_k-76" value="Error Snackbar" style="rounded=0;whiteSpace=wrap;html=1;fillColor=#dae8fc;strokeColor=#6c8ebf;fillStyle=cross-hatch;" vertex="1" parent="Hx9Hivt2Ttf5M3OkNa_k-203">
          <mxGeometry x="880" y="370" width="180" height="20" as="geometry" />
        </mxCell>
        <mxCell id="Hx9Hivt2Ttf5M3OkNa_k-77" value="Name" style="rounded=0;whiteSpace=wrap;html=1;" vertex="1" parent="Hx9Hivt2Ttf5M3OkNa_k-203">
          <mxGeometry x="890" y="160" width="160" height="30" as="geometry" />
        </mxCell>
        <mxCell id="Hx9Hivt2Ttf5M3OkNa_k-78" value="Short Name" style="rounded=0;whiteSpace=wrap;html=1;" vertex="1" parent="Hx9Hivt2Ttf5M3OkNa_k-203">
          <mxGeometry x="890" y="200" width="160" height="30" as="geometry" />
        </mxCell>
        <mxCell id="Hx9Hivt2Ttf5M3OkNa_k-79" value="Latitude" style="rounded=0;whiteSpace=wrap;html=1;" vertex="1" parent="Hx9Hivt2Ttf5M3OkNa_k-203">
          <mxGeometry x="890" y="250" width="160" height="30" as="geometry" />
        </mxCell>
        <mxCell id="Hx9Hivt2Ttf5M3OkNa_k-80" value="Longitude" style="rounded=0;whiteSpace=wrap;html=1;" vertex="1" parent="Hx9Hivt2Ttf5M3OkNa_k-203">
          <mxGeometry x="890" y="290" width="160" height="30" as="geometry" />
        </mxCell>
        <mxCell id="Hx9Hivt2Ttf5M3OkNa_k-81" value="Title" style="text;html=1;align=center;verticalAlign=middle;whiteSpace=wrap;rounded=0;fontStyle=1" vertex="1" parent="Hx9Hivt2Ttf5M3OkNa_k-203">
          <mxGeometry x="890" y="130" width="60" height="30" as="geometry" />
        </mxCell>
        <mxCell id="Hx9Hivt2Ttf5M3OkNa_k-82" value="OK" style="rounded=0;whiteSpace=wrap;html=1;" vertex="1" parent="Hx9Hivt2Ttf5M3OkNa_k-203">
          <mxGeometry x="1000" y="330" width="50" height="20" as="geometry" />
        </mxCell>
        <mxCell id="Hx9Hivt2Ttf5M3OkNa_k-83" value="Cancel" style="rounded=0;whiteSpace=wrap;html=1;" vertex="1" parent="Hx9Hivt2Ttf5M3OkNa_k-203">
          <mxGeometry x="940" y="330" width="50" height="20" as="geometry" />
        </mxCell>
        <mxCell id="Hx9Hivt2Ttf5M3OkNa_k-98" value="Pagination" style="rounded=0;whiteSpace=wrap;html=1;" vertex="1" parent="Hx9Hivt2Ttf5M3OkNa_k-203">
          <mxGeometry x="240" y="340" width="280" height="20" as="geometry" />
        </mxCell>
        <mxCell id="Hx9Hivt2Ttf5M3OkNa_k-138" value="" style="endArrow=classic;html=1;rounded=0;strokeColor=#00FFFF;exitX=1;exitY=0.5;exitDx=0;exitDy=0;entryX=0.5;entryY=0;entryDx=0;entryDy=0;" edge="1" parent="Hx9Hivt2Ttf5M3OkNa_k-203" source="Hx9Hivt2Ttf5M3OkNa_k-45" target="Hx9Hivt2Ttf5M3OkNa_k-57">
          <mxGeometry width="50" height="50" relative="1" as="geometry">
            <mxPoint x="720" y="-100" as="sourcePoint" />
            <mxPoint x="800" y="-100" as="targetPoint" />
            <Array as="points">
              <mxPoint x="560" y="195" />
              <mxPoint x="560" y="100" />
              <mxPoint x="770" y="100" />
            </Array>
          </mxGeometry>
        </mxCell>
        <mxCell id="Hx9Hivt2Ttf5M3OkNa_k-139" value="" style="endArrow=classic;html=1;rounded=0;strokeColor=#FF33FF;exitX=1;exitY=0.5;exitDx=0;exitDy=0;entryX=0.5;entryY=0;entryDx=0;entryDy=0;" edge="1" parent="Hx9Hivt2Ttf5M3OkNa_k-203" source="Hx9Hivt2Ttf5M3OkNa_k-55" target="Hx9Hivt2Ttf5M3OkNa_k-75">
          <mxGeometry width="50" height="50" relative="1" as="geometry">
            <mxPoint x="590" y="319.5999999999999" as="sourcePoint" />
            <mxPoint x="670" y="319.5999999999999" as="targetPoint" />
            <Array as="points">
              <mxPoint x="660" y="310" />
              <mxPoint x="660" y="80" />
              <mxPoint x="970" y="80" />
            </Array>
          </mxGeometry>
        </mxCell>
        <mxCell id="Hx9Hivt2Ttf5M3OkNa_k-204" value="" style="group" vertex="1" connectable="0" parent="1">
          <mxGeometry x="40" y="1320" width="1140" height="410" as="geometry" />
        </mxCell>
        <mxCell id="Hx9Hivt2Ttf5M3OkNa_k-142" value="" style="rounded=0;whiteSpace=wrap;html=1;fillColor=none;" vertex="1" parent="Hx9Hivt2Ttf5M3OkNa_k-204">
          <mxGeometry y="40" width="640" height="360" as="geometry" />
        </mxCell>
        <mxCell id="Hx9Hivt2Ttf5M3OkNa_k-17" value="" style="rounded=0;whiteSpace=wrap;html=1;fillColor=none;" vertex="1" parent="Hx9Hivt2Ttf5M3OkNa_k-204">
          <mxGeometry x="120" y="80" width="520" height="320" as="geometry" />
        </mxCell>
        <mxCell id="Hx9Hivt2Ttf5M3OkNa_k-31" value="Routes Page" style="text;html=1;align=center;verticalAlign=middle;whiteSpace=wrap;rounded=0;fontSize=24;" vertex="1" parent="Hx9Hivt2Ttf5M3OkNa_k-204">
          <mxGeometry width="240" height="40" as="geometry" />
        </mxCell>
        <mxCell id="Hx9Hivt2Ttf5M3OkNa_k-146" value="Title" style="rounded=0;whiteSpace=wrap;html=1;fillColor=#d5e8d4;strokeColor=#82b366;" vertex="1" parent="Hx9Hivt2Ttf5M3OkNa_k-204">
          <mxGeometry x="280" y="100" width="200" height="40" as="geometry" />
        </mxCell>
        <mxCell id="Hx9Hivt2Ttf5M3OkNa_k-147" value="Create Route Button" style="rounded=0;whiteSpace=wrap;html=1;" vertex="1" parent="Hx9Hivt2Ttf5M3OkNa_k-204">
          <mxGeometry x="280" y="150" width="200" height="30" as="geometry" />
        </mxCell>
        <mxCell id="Hx9Hivt2Ttf5M3OkNa_k-148" value="Existing RoutesTable" style="rounded=0;whiteSpace=wrap;html=1;" vertex="1" parent="Hx9Hivt2Ttf5M3OkNa_k-204">
          <mxGeometry x="240" y="240" width="280" height="20" as="geometry" />
        </mxCell>
        <mxCell id="Hx9Hivt2Ttf5M3OkNa_k-149" value="TABLE HEADER" style="rounded=0;whiteSpace=wrap;html=1;" vertex="1" parent="Hx9Hivt2Ttf5M3OkNa_k-204">
          <mxGeometry x="240" y="260" width="280" height="20" as="geometry" />
        </mxCell>
        <mxCell id="Hx9Hivt2Ttf5M3OkNa_k-150" value="name" style="text;html=1;align=center;verticalAlign=middle;whiteSpace=wrap;rounded=0;" vertex="1" parent="Hx9Hivt2Ttf5M3OkNa_k-204">
          <mxGeometry x="240" y="280" width="60" height="10" as="geometry" />
        </mxCell>
        <mxCell id="Hx9Hivt2Ttf5M3OkNa_k-151" value="Number" style="text;html=1;align=center;verticalAlign=middle;whiteSpace=wrap;rounded=0;" vertex="1" parent="Hx9Hivt2Ttf5M3OkNa_k-204">
          <mxGeometry x="313" y="280" width="60" height="10" as="geometry" />
        </mxCell>
        <mxCell id="Hx9Hivt2Ttf5M3OkNa_k-152" value="start time" style="text;html=1;align=center;verticalAlign=middle;whiteSpace=wrap;rounded=0;" vertex="1" parent="Hx9Hivt2Ttf5M3OkNa_k-204">
          <mxGeometry x="387" y="280" width="60" height="10" as="geometry" />
        </mxCell>
        <mxCell id="Hx9Hivt2Ttf5M3OkNa_k-153" value="actions" style="text;html=1;align=center;verticalAlign=middle;whiteSpace=wrap;rounded=0;" vertex="1" parent="Hx9Hivt2Ttf5M3OkNa_k-204">
          <mxGeometry x="460" y="280" width="60" height="10" as="geometry" />
        </mxCell>
        <mxCell id="Hx9Hivt2Ttf5M3OkNa_k-154" value="&lt;font&gt;Delete Button&lt;/font&gt;" style="rounded=0;whiteSpace=wrap;html=1;horizontal=1;fontSize=6;" vertex="1" parent="Hx9Hivt2Ttf5M3OkNa_k-204">
          <mxGeometry x="480" y="300" width="20" height="20" as="geometry" />
        </mxCell>
        <mxCell id="Hx9Hivt2Ttf5M3OkNa_k-156" value="Error Snackbar" style="rounded=0;whiteSpace=wrap;html=1;fillColor=#dae8fc;strokeColor=#6c8ebf;fillStyle=cross-hatch;" vertex="1" parent="Hx9Hivt2Ttf5M3OkNa_k-204">
          <mxGeometry x="240" y="370" width="280" height="20" as="geometry" />
        </mxCell>
        <mxCell id="Hx9Hivt2Ttf5M3OkNa_k-157" value="Pagination" style="rounded=0;whiteSpace=wrap;html=1;" vertex="1" parent="Hx9Hivt2Ttf5M3OkNa_k-204">
          <mxGeometry x="240" y="340" width="280" height="20" as="geometry" />
        </mxCell>
        <mxCell id="Hx9Hivt2Ttf5M3OkNa_k-158" value="Create Stop Dialog" style="rounded=0;whiteSpace=wrap;html=1;fillColor=#e1d5e7;strokeColor=default;fillStyle=dots;" vertex="1" parent="Hx9Hivt2Ttf5M3OkNa_k-204">
          <mxGeometry x="680" y="80" width="180" height="290" as="geometry" />
        </mxCell>
        <mxCell id="Hx9Hivt2Ttf5M3OkNa_k-159" value="Error Snackbar" style="rounded=0;whiteSpace=wrap;html=1;fillColor=#dae8fc;strokeColor=#6c8ebf;fillStyle=cross-hatch;" vertex="1" parent="Hx9Hivt2Ttf5M3OkNa_k-204">
          <mxGeometry x="680" y="380" width="180" height="20" as="geometry" />
        </mxCell>
        <mxCell id="Hx9Hivt2Ttf5M3OkNa_k-160" value="Name" style="rounded=0;whiteSpace=wrap;html=1;" vertex="1" parent="Hx9Hivt2Ttf5M3OkNa_k-204">
          <mxGeometry x="690" y="110" width="160" height="30" as="geometry" />
        </mxCell>
        <mxCell id="Hx9Hivt2Ttf5M3OkNa_k-161" value="Number" style="rounded=0;whiteSpace=wrap;html=1;" vertex="1" parent="Hx9Hivt2Ttf5M3OkNa_k-204">
          <mxGeometry x="690" y="150" width="160" height="30" as="geometry" />
        </mxCell>
        <mxCell id="Hx9Hivt2Ttf5M3OkNa_k-163" value="Stops" style="rounded=0;whiteSpace=wrap;html=1;" vertex="1" parent="Hx9Hivt2Ttf5M3OkNa_k-204">
          <mxGeometry x="690" y="250" width="160" height="70" as="geometry" />
        </mxCell>
        <mxCell id="Hx9Hivt2Ttf5M3OkNa_k-164" value="Title" style="text;html=1;align=center;verticalAlign=middle;whiteSpace=wrap;rounded=0;fontStyle=1" vertex="1" parent="Hx9Hivt2Ttf5M3OkNa_k-204">
          <mxGeometry x="690" y="80" width="60" height="30" as="geometry" />
        </mxCell>
        <mxCell id="Hx9Hivt2Ttf5M3OkNa_k-165" value="OK" style="rounded=0;whiteSpace=wrap;html=1;" vertex="1" parent="Hx9Hivt2Ttf5M3OkNa_k-204">
          <mxGeometry x="800" y="340" width="50" height="20" as="geometry" />
        </mxCell>
        <mxCell id="Hx9Hivt2Ttf5M3OkNa_k-166" value="Cancel" style="rounded=0;whiteSpace=wrap;html=1;" vertex="1" parent="Hx9Hivt2Ttf5M3OkNa_k-204">
          <mxGeometry x="740" y="340" width="50" height="20" as="geometry" />
        </mxCell>
        <mxCell id="Hx9Hivt2Ttf5M3OkNa_k-176" value="Stop" style="rounded=0;whiteSpace=wrap;html=1;fillColor=none;" vertex="1" parent="Hx9Hivt2Ttf5M3OkNa_k-204">
          <mxGeometry x="920" y="120" width="220" height="130" as="geometry" />
        </mxCell>
        <mxCell id="Hx9Hivt2Ttf5M3OkNa_k-177" value="StopPoint Selector" style="rounded=0;whiteSpace=wrap;html=1;" vertex="1" parent="Hx9Hivt2Ttf5M3OkNa_k-204">
          <mxGeometry x="930" y="130" width="170" height="30" as="geometry" />
        </mxCell>
        <mxCell id="Hx9Hivt2Ttf5M3OkNa_k-178" value="" style="rounded=0;whiteSpace=wrap;html=1;" vertex="1" parent="Hx9Hivt2Ttf5M3OkNa_k-204">
          <mxGeometry x="1100" y="130" width="30" height="30" as="geometry" />
        </mxCell>
        <mxCell id="Hx9Hivt2Ttf5M3OkNa_k-179" value="Arrival Time" style="rounded=0;whiteSpace=wrap;html=1;" vertex="1" parent="Hx9Hivt2Ttf5M3OkNa_k-204">
          <mxGeometry x="930" y="170" width="200" height="30" as="geometry" />
        </mxCell>
        <mxCell id="Hx9Hivt2Ttf5M3OkNa_k-180" value="Departure time" style="rounded=0;whiteSpace=wrap;html=1;" vertex="1" parent="Hx9Hivt2Ttf5M3OkNa_k-204">
          <mxGeometry x="930" y="210" width="200" height="30" as="geometry" />
        </mxCell>
        <mxCell id="Hx9Hivt2Ttf5M3OkNa_k-181" value="Stop" style="rounded=0;whiteSpace=wrap;html=1;fillColor=none;" vertex="1" parent="Hx9Hivt2Ttf5M3OkNa_k-204">
          <mxGeometry x="920" y="280" width="220" height="130" as="geometry" />
        </mxCell>
        <mxCell id="Hx9Hivt2Ttf5M3OkNa_k-182" value="StopPoint Selector" style="rounded=0;whiteSpace=wrap;html=1;" vertex="1" parent="Hx9Hivt2Ttf5M3OkNa_k-204">
          <mxGeometry x="930" y="290" width="170" height="30" as="geometry" />
        </mxCell>
        <mxCell id="Hx9Hivt2Ttf5M3OkNa_k-183" value="" style="rounded=0;whiteSpace=wrap;html=1;" vertex="1" parent="Hx9Hivt2Ttf5M3OkNa_k-204">
          <mxGeometry x="1100" y="290" width="30" height="30" as="geometry" />
        </mxCell>
        <mxCell id="Hx9Hivt2Ttf5M3OkNa_k-184" value="Arrival Time" style="rounded=0;whiteSpace=wrap;html=1;" vertex="1" parent="Hx9Hivt2Ttf5M3OkNa_k-204">
          <mxGeometry x="930" y="330" width="200" height="30" as="geometry" />
        </mxCell>
        <mxCell id="Hx9Hivt2Ttf5M3OkNa_k-185" value="Departure time" style="rounded=0;whiteSpace=wrap;html=1;" vertex="1" parent="Hx9Hivt2Ttf5M3OkNa_k-204">
          <mxGeometry x="930" y="370" width="200" height="30" as="geometry" />
        </mxCell>
        <mxCell id="Hx9Hivt2Ttf5M3OkNa_k-186" value="" style="endArrow=none;dashed=1;html=1;dashPattern=1 3;strokeWidth=2;rounded=0;entryX=0.5;entryY=1;entryDx=0;entryDy=0;exitX=0.5;exitY=0;exitDx=0;exitDy=0;" edge="1" parent="Hx9Hivt2Ttf5M3OkNa_k-204" source="Hx9Hivt2Ttf5M3OkNa_k-181" target="Hx9Hivt2Ttf5M3OkNa_k-176">
          <mxGeometry width="50" height="50" relative="1" as="geometry">
            <mxPoint x="1030" y="270" as="sourcePoint" />
            <mxPoint x="1030" y="260" as="targetPoint" />
          </mxGeometry>
        </mxCell>
        <mxCell id="Hx9Hivt2Ttf5M3OkNa_k-187" value="" style="endArrow=none;html=1;rounded=0;exitX=1;exitY=0;exitDx=0;exitDy=0;" edge="1" parent="Hx9Hivt2Ttf5M3OkNa_k-204" source="Hx9Hivt2Ttf5M3OkNa_k-163">
          <mxGeometry width="50" height="50" relative="1" as="geometry">
            <mxPoint x="870" y="170" as="sourcePoint" />
            <mxPoint x="920" y="120" as="targetPoint" />
          </mxGeometry>
        </mxCell>
        <mxCell id="Hx9Hivt2Ttf5M3OkNa_k-188" value="" style="endArrow=none;html=1;rounded=0;exitX=1;exitY=1;exitDx=0;exitDy=0;entryX=0;entryY=1;entryDx=0;entryDy=0;" edge="1" parent="Hx9Hivt2Ttf5M3OkNa_k-204" source="Hx9Hivt2Ttf5M3OkNa_k-163" target="Hx9Hivt2Ttf5M3OkNa_k-181">
          <mxGeometry width="50" height="50" relative="1" as="geometry">
            <mxPoint x="860" y="260" as="sourcePoint" />
            <mxPoint x="930" y="130" as="targetPoint" />
          </mxGeometry>
        </mxCell>
        <mxCell id="Hx9Hivt2Ttf5M3OkNa_k-189" value="Validity Selector" style="rounded=0;whiteSpace=wrap;html=1;" vertex="1" parent="Hx9Hivt2Ttf5M3OkNa_k-204">
          <mxGeometry x="690" y="190" width="130" height="30" as="geometry" />
        </mxCell>
        <mxCell id="Hx9Hivt2Ttf5M3OkNa_k-190" value="" style="rounded=0;whiteSpace=wrap;html=1;" vertex="1" parent="Hx9Hivt2Ttf5M3OkNa_k-204">
          <mxGeometry x="820" y="190" width="30" height="30" as="geometry" />
        </mxCell>
        <mxCell id="Hx9Hivt2Ttf5M3OkNa_k-191" value="" style="triangle;whiteSpace=wrap;html=1;rotation=90;fillColor=#000000;" vertex="1" parent="Hx9Hivt2Ttf5M3OkNa_k-204">
          <mxGeometry x="1110" y="140" width="10" height="15" as="geometry" />
        </mxCell>
        <mxCell id="Hx9Hivt2Ttf5M3OkNa_k-192" value="" style="triangle;whiteSpace=wrap;html=1;rotation=90;fillColor=#000000;" vertex="1" parent="Hx9Hivt2Ttf5M3OkNa_k-204">
          <mxGeometry x="830" y="200" width="10" height="15" as="geometry" />
        </mxCell>
        <mxCell id="Hx9Hivt2Ttf5M3OkNa_k-205" value="" style="group" vertex="1" connectable="0" parent="1">
          <mxGeometry x="40" y="1760" width="1060" height="400" as="geometry" />
        </mxCell>
        <mxCell id="Hx9Hivt2Ttf5M3OkNa_k-141" value="" style="rounded=0;whiteSpace=wrap;html=1;fillColor=none;" vertex="1" parent="Hx9Hivt2Ttf5M3OkNa_k-205">
          <mxGeometry y="40" width="640" height="360" as="geometry" />
        </mxCell>
        <mxCell id="Hx9Hivt2Ttf5M3OkNa_k-18" value="" style="rounded=0;whiteSpace=wrap;html=1;fillColor=none;" vertex="1" parent="Hx9Hivt2Ttf5M3OkNa_k-205">
          <mxGeometry x="120" y="80" width="520" height="320" as="geometry" />
        </mxCell>
        <mxCell id="Hx9Hivt2Ttf5M3OkNa_k-32" value="Holidays Page" style="text;html=1;align=center;verticalAlign=middle;whiteSpace=wrap;rounded=0;fontSize=24;" vertex="1" parent="Hx9Hivt2Ttf5M3OkNa_k-205">
          <mxGeometry width="240" height="40" as="geometry" />
        </mxCell>
        <mxCell id="Hx9Hivt2Ttf5M3OkNa_k-66" value="Create Holiday Dialog" style="rounded=0;whiteSpace=wrap;html=1;fillColor=#e1d5e7;strokeColor=default;fillStyle=dots;" vertex="1" parent="Hx9Hivt2Ttf5M3OkNa_k-205">
          <mxGeometry x="680" y="120" width="180" height="240" as="geometry" />
        </mxCell>
        <mxCell id="Hx9Hivt2Ttf5M3OkNa_k-67" value="Error Snackbar" style="rounded=0;whiteSpace=wrap;html=1;fillColor=#dae8fc;strokeColor=#6c8ebf;fillStyle=cross-hatch;" vertex="1" parent="Hx9Hivt2Ttf5M3OkNa_k-205">
          <mxGeometry x="680" y="370" width="180" height="20" as="geometry" />
        </mxCell>
        <mxCell id="Hx9Hivt2Ttf5M3OkNa_k-68" value="Name" style="rounded=0;whiteSpace=wrap;html=1;" vertex="1" parent="Hx9Hivt2Ttf5M3OkNa_k-205">
          <mxGeometry x="690" y="160" width="160" height="30" as="geometry" />
        </mxCell>
        <mxCell id="Hx9Hivt2Ttf5M3OkNa_k-69" value="StartDate" style="rounded=0;whiteSpace=wrap;html=1;" vertex="1" parent="Hx9Hivt2Ttf5M3OkNa_k-205">
          <mxGeometry x="690" y="200" width="160" height="30" as="geometry" />
        </mxCell>
        <mxCell id="Hx9Hivt2Ttf5M3OkNa_k-70" value="EndDate" style="rounded=0;whiteSpace=wrap;html=1;" vertex="1" parent="Hx9Hivt2Ttf5M3OkNa_k-205">
          <mxGeometry x="690" y="250" width="160" height="30" as="geometry" />
        </mxCell>
        <mxCell id="Hx9Hivt2Ttf5M3OkNa_k-71" value="Type (Dropdown)" style="rounded=0;whiteSpace=wrap;html=1;" vertex="1" parent="Hx9Hivt2Ttf5M3OkNa_k-205">
          <mxGeometry x="690" y="290" width="160" height="30" as="geometry" />
        </mxCell>
        <mxCell id="Hx9Hivt2Ttf5M3OkNa_k-72" value="Title" style="text;html=1;align=center;verticalAlign=middle;whiteSpace=wrap;rounded=0;fontStyle=1" vertex="1" parent="Hx9Hivt2Ttf5M3OkNa_k-205">
          <mxGeometry x="690" y="130" width="60" height="30" as="geometry" />
        </mxCell>
        <mxCell id="Hx9Hivt2Ttf5M3OkNa_k-73" value="OK" style="rounded=0;whiteSpace=wrap;html=1;" vertex="1" parent="Hx9Hivt2Ttf5M3OkNa_k-205">
          <mxGeometry x="800" y="330" width="50" height="20" as="geometry" />
        </mxCell>
        <mxCell id="Hx9Hivt2Ttf5M3OkNa_k-74" value="Cancel" style="rounded=0;whiteSpace=wrap;html=1;" vertex="1" parent="Hx9Hivt2Ttf5M3OkNa_k-205">
          <mxGeometry x="740" y="330" width="50" height="20" as="geometry" />
        </mxCell>
        <mxCell id="Hx9Hivt2Ttf5M3OkNa_k-84" value="Title" style="rounded=0;whiteSpace=wrap;html=1;fillColor=#d5e8d4;strokeColor=#82b366;" vertex="1" parent="Hx9Hivt2Ttf5M3OkNa_k-205">
          <mxGeometry x="280" y="110" width="200" height="40" as="geometry" />
        </mxCell>
        <mxCell id="Hx9Hivt2Ttf5M3OkNa_k-118" style="edgeStyle=orthogonalEdgeStyle;rounded=0;orthogonalLoop=1;jettySize=auto;html=1;entryX=0.5;entryY=0;entryDx=0;entryDy=0;strokeColor=#00FFFF;" edge="1" parent="Hx9Hivt2Ttf5M3OkNa_k-205" source="Hx9Hivt2Ttf5M3OkNa_k-85" target="Hx9Hivt2Ttf5M3OkNa_k-66">
          <mxGeometry relative="1" as="geometry" />
        </mxCell>
        <mxCell id="Hx9Hivt2Ttf5M3OkNa_k-85" value="Create Holiday Button" style="rounded=0;whiteSpace=wrap;html=1;" vertex="1" parent="Hx9Hivt2Ttf5M3OkNa_k-205">
          <mxGeometry x="280" y="170" width="200" height="30" as="geometry" />
        </mxCell>
        <mxCell id="Hx9Hivt2Ttf5M3OkNa_k-86" value="Existing Stops Table" style="rounded=0;whiteSpace=wrap;html=1;" vertex="1" parent="Hx9Hivt2Ttf5M3OkNa_k-205">
          <mxGeometry x="240" y="230" width="280" height="20" as="geometry" />
        </mxCell>
        <mxCell id="Hx9Hivt2Ttf5M3OkNa_k-87" value="TABLE HEADER" style="rounded=0;whiteSpace=wrap;html=1;" vertex="1" parent="Hx9Hivt2Ttf5M3OkNa_k-205">
          <mxGeometry x="240" y="250" width="280" height="20" as="geometry" />
        </mxCell>
        <mxCell id="Hx9Hivt2Ttf5M3OkNa_k-88" value="name" style="text;html=1;align=center;verticalAlign=middle;whiteSpace=wrap;rounded=0;" vertex="1" parent="Hx9Hivt2Ttf5M3OkNa_k-205">
          <mxGeometry x="240" y="270" width="60" height="10" as="geometry" />
        </mxCell>
        <mxCell id="Hx9Hivt2Ttf5M3OkNa_k-89" value="startdate" style="text;html=1;align=center;verticalAlign=middle;whiteSpace=wrap;rounded=0;" vertex="1" parent="Hx9Hivt2Ttf5M3OkNa_k-205">
          <mxGeometry x="295" y="270" width="60" height="10" as="geometry" />
        </mxCell>
        <mxCell id="Hx9Hivt2Ttf5M3OkNa_k-90" value="enddate" style="text;html=1;align=center;verticalAlign=middle;whiteSpace=wrap;rounded=0;" vertex="1" parent="Hx9Hivt2Ttf5M3OkNa_k-205">
          <mxGeometry x="350" y="270" width="60" height="10" as="geometry" />
        </mxCell>
        <mxCell id="Hx9Hivt2Ttf5M3OkNa_k-91" value="actions" style="text;html=1;align=center;verticalAlign=middle;whiteSpace=wrap;rounded=0;" vertex="1" parent="Hx9Hivt2Ttf5M3OkNa_k-205">
          <mxGeometry x="460" y="270" width="60" height="10" as="geometry" />
        </mxCell>
        <mxCell id="Hx9Hivt2Ttf5M3OkNa_k-92" value="&lt;font&gt;Delete Button&lt;/font&gt;" style="rounded=0;whiteSpace=wrap;html=1;horizontal=1;fontSize=6;" vertex="1" parent="Hx9Hivt2Ttf5M3OkNa_k-205">
          <mxGeometry x="470" y="290" width="20" height="20" as="geometry" />
        </mxCell>
        <mxCell id="Hx9Hivt2Ttf5M3OkNa_k-93" value="&lt;font&gt;Edit Button&lt;/font&gt;" style="rounded=0;whiteSpace=wrap;html=1;horizontal=1;fontSize=6;" vertex="1" parent="Hx9Hivt2Ttf5M3OkNa_k-205">
          <mxGeometry x="495" y="290" width="20" height="20" as="geometry" />
        </mxCell>
        <mxCell id="Hx9Hivt2Ttf5M3OkNa_k-94" value="Error Snackbar" style="rounded=0;whiteSpace=wrap;html=1;fillColor=#dae8fc;strokeColor=#6c8ebf;fillStyle=cross-hatch;" vertex="1" parent="Hx9Hivt2Ttf5M3OkNa_k-205">
          <mxGeometry x="240" y="360" width="280" height="20" as="geometry" />
        </mxCell>
        <mxCell id="Hx9Hivt2Ttf5M3OkNa_k-95" value="type" style="text;html=1;align=center;verticalAlign=middle;whiteSpace=wrap;rounded=0;" vertex="1" parent="Hx9Hivt2Ttf5M3OkNa_k-205">
          <mxGeometry x="405" y="270" width="60" height="10" as="geometry" />
        </mxCell>
        <mxCell id="Hx9Hivt2Ttf5M3OkNa_k-97" value="Pagination" style="rounded=0;whiteSpace=wrap;html=1;" vertex="1" parent="Hx9Hivt2Ttf5M3OkNa_k-205">
          <mxGeometry x="240" y="330" width="280" height="20" as="geometry" />
        </mxCell>
        <mxCell id="Hx9Hivt2Ttf5M3OkNa_k-108" value="Update Holiday Dialog" style="rounded=0;whiteSpace=wrap;html=1;fillColor=#e1d5e7;strokeColor=default;fillStyle=dots;" vertex="1" parent="Hx9Hivt2Ttf5M3OkNa_k-205">
          <mxGeometry x="880" y="120" width="180" height="240" as="geometry" />
        </mxCell>
        <mxCell id="Hx9Hivt2Ttf5M3OkNa_k-109" value="Error Snackbar" style="rounded=0;whiteSpace=wrap;html=1;fillColor=#dae8fc;strokeColor=#6c8ebf;fillStyle=cross-hatch;" vertex="1" parent="Hx9Hivt2Ttf5M3OkNa_k-205">
          <mxGeometry x="880" y="370" width="180" height="20" as="geometry" />
        </mxCell>
        <mxCell id="Hx9Hivt2Ttf5M3OkNa_k-110" value="Name" style="rounded=0;whiteSpace=wrap;html=1;" vertex="1" parent="Hx9Hivt2Ttf5M3OkNa_k-205">
          <mxGeometry x="890" y="160" width="160" height="30" as="geometry" />
        </mxCell>
        <mxCell id="Hx9Hivt2Ttf5M3OkNa_k-111" value="StartDate" style="rounded=0;whiteSpace=wrap;html=1;" vertex="1" parent="Hx9Hivt2Ttf5M3OkNa_k-205">
          <mxGeometry x="890" y="200" width="160" height="30" as="geometry" />
        </mxCell>
        <mxCell id="Hx9Hivt2Ttf5M3OkNa_k-112" value="EndDate" style="rounded=0;whiteSpace=wrap;html=1;" vertex="1" parent="Hx9Hivt2Ttf5M3OkNa_k-205">
          <mxGeometry x="890" y="250" width="160" height="30" as="geometry" />
        </mxCell>
        <mxCell id="Hx9Hivt2Ttf5M3OkNa_k-113" value="Type (Dropdown)" style="rounded=0;whiteSpace=wrap;html=1;" vertex="1" parent="Hx9Hivt2Ttf5M3OkNa_k-205">
          <mxGeometry x="890" y="290" width="160" height="30" as="geometry" />
        </mxCell>
        <mxCell id="Hx9Hivt2Ttf5M3OkNa_k-114" value="Title" style="text;html=1;align=center;verticalAlign=middle;whiteSpace=wrap;rounded=0;fontStyle=1" vertex="1" parent="Hx9Hivt2Ttf5M3OkNa_k-205">
          <mxGeometry x="890" y="130" width="60" height="30" as="geometry" />
        </mxCell>
        <mxCell id="Hx9Hivt2Ttf5M3OkNa_k-115" value="OK" style="rounded=0;whiteSpace=wrap;html=1;" vertex="1" parent="Hx9Hivt2Ttf5M3OkNa_k-205">
          <mxGeometry x="1000" y="330" width="50" height="20" as="geometry" />
        </mxCell>
        <mxCell id="Hx9Hivt2Ttf5M3OkNa_k-116" value="Cancel" style="rounded=0;whiteSpace=wrap;html=1;" vertex="1" parent="Hx9Hivt2Ttf5M3OkNa_k-205">
          <mxGeometry x="940" y="330" width="50" height="20" as="geometry" />
        </mxCell>
        <mxCell id="Hx9Hivt2Ttf5M3OkNa_k-117" value="" style="endArrow=classic;html=1;rounded=0;exitX=1;exitY=0.5;exitDx=0;exitDy=0;entryX=0.5;entryY=0;entryDx=0;entryDy=0;strokeColor=#FF33FF;" edge="1" parent="Hx9Hivt2Ttf5M3OkNa_k-205" source="Hx9Hivt2Ttf5M3OkNa_k-93" target="Hx9Hivt2Ttf5M3OkNa_k-108">
          <mxGeometry width="50" height="50" relative="1" as="geometry">
            <mxPoint x="550" y="290" as="sourcePoint" />
            <mxPoint x="600" y="240" as="targetPoint" />
            <Array as="points">
              <mxPoint x="660" y="300" />
              <mxPoint x="660" y="80" />
              <mxPoint x="970" y="80" />
            </Array>
          </mxGeometry>
        </mxCell>
        <mxCell id="Hx9Hivt2Ttf5M3OkNa_k-193" value="" style="rounded=0;whiteSpace=wrap;html=1;" vertex="1" parent="Hx9Hivt2Ttf5M3OkNa_k-205">
          <mxGeometry x="1020" y="290" width="30" height="30" as="geometry" />
        </mxCell>
        <mxCell id="Hx9Hivt2Ttf5M3OkNa_k-194" value="" style="triangle;whiteSpace=wrap;html=1;rotation=90;fillColor=#000000;" vertex="1" parent="Hx9Hivt2Ttf5M3OkNa_k-205">
          <mxGeometry x="1030" y="300" width="10" height="15" as="geometry" />
        </mxCell>
        <mxCell id="Hx9Hivt2Ttf5M3OkNa_k-195" value="" style="rounded=0;whiteSpace=wrap;html=1;" vertex="1" parent="Hx9Hivt2Ttf5M3OkNa_k-205">
          <mxGeometry x="820" y="290" width="30" height="30" as="geometry" />
        </mxCell>
        <mxCell id="Hx9Hivt2Ttf5M3OkNa_k-196" value="" style="triangle;whiteSpace=wrap;html=1;rotation=90;fillColor=#000000;" vertex="1" parent="Hx9Hivt2Ttf5M3OkNa_k-205">
          <mxGeometry x="830" y="300" width="10" height="15" as="geometry" />
        </mxCell>
        <mxCell id="Hx9Hivt2Ttf5M3OkNa_k-206" value="" style="group" vertex="1" connectable="0" parent="1">
          <mxGeometry x="40" y="2200" width="660" height="420" as="geometry" />
        </mxCell>
        <mxCell id="Hx9Hivt2Ttf5M3OkNa_k-135" value="" style="rounded=0;whiteSpace=wrap;html=1;fillColor=none;" vertex="1" parent="Hx9Hivt2Ttf5M3OkNa_k-206">
          <mxGeometry y="40" width="640" height="360" as="geometry" />
        </mxCell>
        <mxCell id="Hx9Hivt2Ttf5M3OkNa_k-33" value="" style="rounded=0;whiteSpace=wrap;html=1;fillColor=none;" vertex="1" parent="Hx9Hivt2Ttf5M3OkNa_k-206">
          <mxGeometry x="120" y="80" width="520" height="320" as="geometry" />
        </mxCell>
        <mxCell id="Hx9Hivt2Ttf5M3OkNa_k-39" value="" style="endArrow=none;html=1;rounded=0;fontColor=none;noLabel=1;strokeColor=#FF0080;strokeWidth=8;" edge="1" parent="Hx9Hivt2Ttf5M3OkNa_k-206">
          <mxGeometry width="50" height="50" relative="1" as="geometry">
            <mxPoint x="100" y="20" as="sourcePoint" />
            <mxPoint x="660" y="420" as="targetPoint" />
          </mxGeometry>
        </mxCell>
        <mxCell id="Hx9Hivt2Ttf5M3OkNa_k-40" value="" style="endArrow=none;html=1;rounded=0;fontColor=none;noLabel=1;strokeColor=#FF0080;strokeWidth=8;" edge="1" parent="Hx9Hivt2Ttf5M3OkNa_k-206">
          <mxGeometry width="50" height="50" relative="1" as="geometry">
            <mxPoint x="100" y="420" as="sourcePoint" />
            <mxPoint x="660" y="20" as="targetPoint" />
          </mxGeometry>
        </mxCell>
        <mxCell id="Hx9Hivt2Ttf5M3OkNa_k-41" value="NO CONCEPT CREATED" style="text;html=1;align=center;verticalAlign=middle;whiteSpace=wrap;rounded=0;fontSize=24;fontColor=#FF0080;" vertex="1" parent="Hx9Hivt2Ttf5M3OkNa_k-206">
          <mxGeometry x="265" y="140" width="240" height="40" as="geometry" />
        </mxCell>
        <mxCell id="Hx9Hivt2Ttf5M3OkNa_k-34" value="Stats Page" style="text;html=1;align=center;verticalAlign=middle;whiteSpace=wrap;rounded=0;fontSize=24;" vertex="1" parent="Hx9Hivt2Ttf5M3OkNa_k-206">
          <mxGeometry width="240" height="40" as="geometry" />
        </mxCell>
        <mxCell id="Hx9Hivt2Ttf5M3OkNa_k-207" value="" style="group" vertex="1" connectable="0" parent="1">
          <mxGeometry x="40" y="2640" width="640" height="400" as="geometry" />
        </mxCell>
        <mxCell id="Hx9Hivt2Ttf5M3OkNa_k-134" value="" style="group" vertex="1" connectable="0" parent="Hx9Hivt2Ttf5M3OkNa_k-207">
          <mxGeometry y="40" width="640" height="360" as="geometry" />
        </mxCell>
        <mxCell id="Hx9Hivt2Ttf5M3OkNa_k-133" value="" style="rounded=0;whiteSpace=wrap;html=1;fillColor=none;" vertex="1" parent="Hx9Hivt2Ttf5M3OkNa_k-134">
          <mxGeometry width="640" height="360" as="geometry" />
        </mxCell>
        <mxCell id="Hx9Hivt2Ttf5M3OkNa_k-35" value="" style="rounded=0;whiteSpace=wrap;html=1;fillColor=none;" vertex="1" parent="Hx9Hivt2Ttf5M3OkNa_k-134">
          <mxGeometry x="120" y="40" width="520" height="320" as="geometry" />
        </mxCell>
        <mxCell id="Hx9Hivt2Ttf5M3OkNa_k-123" value="Title" style="rounded=0;whiteSpace=wrap;html=1;fillColor=#d5e8d4;strokeColor=#82b366;" vertex="1" parent="Hx9Hivt2Ttf5M3OkNa_k-134">
          <mxGeometry x="280" y="50" width="200" height="40" as="geometry" />
        </mxCell>
        <mxCell id="Hx9Hivt2Ttf5M3OkNa_k-124" value="Start Loc" style="rounded=0;whiteSpace=wrap;html=1;" vertex="1" parent="Hx9Hivt2Ttf5M3OkNa_k-134">
          <mxGeometry x="280" y="100" width="100" height="20" as="geometry" />
        </mxCell>
        <mxCell id="Hx9Hivt2Ttf5M3OkNa_k-125" value="Destination Loc" style="rounded=0;whiteSpace=wrap;html=1;" vertex="1" parent="Hx9Hivt2Ttf5M3OkNa_k-134">
          <mxGeometry x="280" y="130" width="100" height="20" as="geometry" />
        </mxCell>
        <mxCell id="Hx9Hivt2Ttf5M3OkNa_k-126" value="Submit" style="rounded=0;whiteSpace=wrap;html=1;" vertex="1" parent="Hx9Hivt2Ttf5M3OkNa_k-134">
          <mxGeometry x="420" y="160" width="60" height="20" as="geometry" />
        </mxCell>
        <mxCell id="Hx9Hivt2Ttf5M3OkNa_k-127" value="Results Table" style="rounded=0;whiteSpace=wrap;html=1;" vertex="1" parent="Hx9Hivt2Ttf5M3OkNa_k-134">
          <mxGeometry x="240" y="200" width="280" height="140" as="geometry" />
        </mxCell>
        <mxCell id="Hx9Hivt2Ttf5M3OkNa_k-128" value="Time" style="rounded=0;whiteSpace=wrap;html=1;" vertex="1" parent="Hx9Hivt2Ttf5M3OkNa_k-134">
          <mxGeometry x="390" y="100" width="90" height="20" as="geometry" />
        </mxCell>
        <mxCell id="Hx9Hivt2Ttf5M3OkNa_k-129" value="Time toggl" style="rounded=0;whiteSpace=wrap;html=1;" vertex="1" parent="Hx9Hivt2Ttf5M3OkNa_k-134">
          <mxGeometry x="390" y="130" width="90" height="20" as="geometry" />
        </mxCell>
        <mxCell id="Hx9Hivt2Ttf5M3OkNa_k-36" value="Find Route Page" style="text;html=1;align=center;verticalAlign=middle;whiteSpace=wrap;rounded=0;fontSize=24;" vertex="1" parent="Hx9Hivt2Ttf5M3OkNa_k-207">
          <mxGeometry width="240" height="40" as="geometry" />
        </mxCell>
        <mxCell id="Hx9Hivt2Ttf5M3OkNa_k-209" value="" style="group" vertex="1" connectable="0" parent="1">
          <mxGeometry x="40" y="3080" width="640" height="420" as="geometry" />
        </mxCell>
        <mxCell id="Hx9Hivt2Ttf5M3OkNa_k-38" value="Station Page" style="text;html=1;align=center;verticalAlign=middle;whiteSpace=wrap;rounded=0;fontSize=24;" vertex="1" parent="Hx9Hivt2Ttf5M3OkNa_k-209">
          <mxGeometry width="240" height="40" as="geometry" />
        </mxCell>
        <mxCell id="Hx9Hivt2Ttf5M3OkNa_k-131" value="" style="rounded=0;whiteSpace=wrap;html=1;fillColor=none;" vertex="1" parent="Hx9Hivt2Ttf5M3OkNa_k-209">
          <mxGeometry y="40" width="640" height="360" as="geometry" />
        </mxCell>
        <mxCell id="Hx9Hivt2Ttf5M3OkNa_k-198" value="" style="endArrow=none;html=1;rounded=0;fontColor=none;noLabel=1;strokeColor=#FF0080;strokeWidth=8;" edge="1" parent="Hx9Hivt2Ttf5M3OkNa_k-209">
          <mxGeometry width="50" height="50" relative="1" as="geometry">
            <mxPoint x="40" y="20" as="sourcePoint" />
            <mxPoint x="600" y="420" as="targetPoint" />
          </mxGeometry>
        </mxCell>
        <mxCell id="Hx9Hivt2Ttf5M3OkNa_k-199" value="" style="endArrow=none;html=1;rounded=0;fontColor=none;noLabel=1;strokeColor=#FF0080;strokeWidth=8;" edge="1" parent="Hx9Hivt2Ttf5M3OkNa_k-209">
          <mxGeometry width="50" height="50" relative="1" as="geometry">
            <mxPoint x="40" y="420" as="sourcePoint" />
            <mxPoint x="600" y="20" as="targetPoint" />
          </mxGeometry>
        </mxCell>
        <mxCell id="Hx9Hivt2Ttf5M3OkNa_k-200" value="NO CONCEPT CREATED" style="text;html=1;align=center;verticalAlign=middle;whiteSpace=wrap;rounded=0;fontSize=24;fontColor=#FF0080;" vertex="1" parent="Hx9Hivt2Ttf5M3OkNa_k-209">
          <mxGeometry x="205" y="140" width="240" height="40" as="geometry" />
        </mxCell>
        <mxCell id="Hx9Hivt2Ttf5M3OkNa_k-210" value="" style="group" vertex="1" connectable="0" parent="1">
          <mxGeometry x="40" y="40" width="640" height="360" as="geometry" />
        </mxCell>
        <mxCell id="Hx9Hivt2Ttf5M3OkNa_k-1" value="" style="rounded=0;whiteSpace=wrap;html=1;fillColor=none;" vertex="1" parent="Hx9Hivt2Ttf5M3OkNa_k-210">
          <mxGeometry width="640" height="360" as="geometry" />
        </mxCell>
        <mxCell id="Hx9Hivt2Ttf5M3OkNa_k-2" value="Angular/Material Toolbar" style="rounded=0;whiteSpace=wrap;html=1;" vertex="1" parent="Hx9Hivt2Ttf5M3OkNa_k-210">
          <mxGeometry y="40" width="120" height="320" as="geometry" />
        </mxCell>
        <mxCell id="Hx9Hivt2Ttf5M3OkNa_k-3" value="Angular/Material Toolbar" style="rounded=0;whiteSpace=wrap;html=1;fillColor=#d5e8d4;strokeColor=#82b366;" vertex="1" parent="Hx9Hivt2Ttf5M3OkNa_k-210">
          <mxGeometry width="640" height="40" as="geometry" />
        </mxCell>
        <mxCell id="Hx9Hivt2Ttf5M3OkNa_k-4" value="icon" style="rounded=0;whiteSpace=wrap;html=1;fillColor=#d5e8d4;strokeColor=#82b366;" vertex="1" parent="Hx9Hivt2Ttf5M3OkNa_k-210">
          <mxGeometry x="10" y="5" width="30" height="30" as="geometry" />
        </mxCell>
        <mxCell id="Hx9Hivt2Ttf5M3OkNa_k-5" value="Title" style="rounded=0;whiteSpace=wrap;html=1;fillColor=#d5e8d4;strokeColor=#82b366;" vertex="1" parent="Hx9Hivt2Ttf5M3OkNa_k-210">
          <mxGeometry x="50" y="2.5" width="120" height="35" as="geometry" />
        </mxCell>
        <mxCell id="Hx9Hivt2Ttf5M3OkNa_k-6" value="Login" style="rounded=0;whiteSpace=wrap;html=1;" vertex="1" parent="Hx9Hivt2Ttf5M3OkNa_k-210">
          <mxGeometry x="10" y="50" width="100" height="20" as="geometry" />
        </mxCell>
        <mxCell id="Hx9Hivt2Ttf5M3OkNa_k-7" value="Logout" style="rounded=0;whiteSpace=wrap;html=1;fillColor=#f8cecc;strokeColor=#b85450;" vertex="1" parent="Hx9Hivt2Ttf5M3OkNa_k-210">
          <mxGeometry x="10" y="80" width="100" height="20" as="geometry" />
        </mxCell>
        <mxCell id="Hx9Hivt2Ttf5M3OkNa_k-8" value="Stats" style="rounded=0;whiteSpace=wrap;html=1;" vertex="1" parent="Hx9Hivt2Ttf5M3OkNa_k-210">
          <mxGeometry x="10" y="220" width="100" height="20" as="geometry" />
        </mxCell>
        <mxCell id="Hx9Hivt2Ttf5M3OkNa_k-9" value="Station" style="rounded=0;whiteSpace=wrap;html=1;" vertex="1" parent="Hx9Hivt2Ttf5M3OkNa_k-210">
          <mxGeometry x="10" y="280" width="100" height="20" as="geometry" />
        </mxCell>
        <mxCell id="Hx9Hivt2Ttf5M3OkNa_k-10" value="Stops" style="rounded=0;whiteSpace=wrap;html=1;fillColor=#f8cecc;strokeColor=#b85450;" vertex="1" parent="Hx9Hivt2Ttf5M3OkNa_k-210">
          <mxGeometry x="10" y="110" width="100" height="20" as="geometry" />
        </mxCell>
        <mxCell id="Hx9Hivt2Ttf5M3OkNa_k-11" value="Routes" style="rounded=0;whiteSpace=wrap;html=1;fillColor=#f8cecc;strokeColor=#b85450;" vertex="1" parent="Hx9Hivt2Ttf5M3OkNa_k-210">
          <mxGeometry x="10" y="140" width="100" height="20" as="geometry" />
        </mxCell>
        <mxCell id="Hx9Hivt2Ttf5M3OkNa_k-12" value="Holidays" style="rounded=0;whiteSpace=wrap;html=1;fillColor=#f8cecc;strokeColor=#b85450;" vertex="1" parent="Hx9Hivt2Ttf5M3OkNa_k-210">
          <mxGeometry x="10" y="170" width="100" height="20" as="geometry" />
        </mxCell>
        <mxCell id="Hx9Hivt2Ttf5M3OkNa_k-13" value="Find Route" style="rounded=0;whiteSpace=wrap;html=1;" vertex="1" parent="Hx9Hivt2Ttf5M3OkNa_k-210">
          <mxGeometry x="10" y="250" width="100" height="20" as="geometry" />
        </mxCell>
        <mxCell id="Hx9Hivt2Ttf5M3OkNa_k-14" value="router-outlet" style="rounded=0;whiteSpace=wrap;html=1;" vertex="1" parent="Hx9Hivt2Ttf5M3OkNa_k-210">
          <mxGeometry x="120" y="40" width="520" height="320" as="geometry" />
        </mxCell>
        <mxCell id="Hx9Hivt2Ttf5M3OkNa_k-211" value="" style="group" vertex="1" connectable="0" parent="1">
          <mxGeometry x="720" y="45" width="120" height="325" as="geometry" />
        </mxCell>
        <mxCell id="Hx9Hivt2Ttf5M3OkNa_k-20" value="Default Visible" style="rounded=0;whiteSpace=wrap;html=1;" vertex="1" parent="Hx9Hivt2Ttf5M3OkNa_k-211">
          <mxGeometry y="35" width="120" height="40" as="geometry" />
        </mxCell>
        <mxCell id="Hx9Hivt2Ttf5M3OkNa_k-21" value="Default Hidden&lt;br&gt;(Req. auth.)" style="rounded=0;whiteSpace=wrap;html=1;fillColor=#f8cecc;strokeColor=#b85450;" vertex="1" parent="Hx9Hivt2Ttf5M3OkNa_k-211">
          <mxGeometry y="85" width="120" height="40" as="geometry" />
        </mxCell>
        <mxCell id="Hx9Hivt2Ttf5M3OkNa_k-22" value="Legend:" style="text;html=1;align=center;verticalAlign=middle;whiteSpace=wrap;rounded=0;" vertex="1" parent="Hx9Hivt2Ttf5M3OkNa_k-211">
          <mxGeometry width="60" height="30" as="geometry" />
        </mxCell>
        <mxCell id="Hx9Hivt2Ttf5M3OkNa_k-23" value="Non-functional&lt;br&gt;(Decoration)" style="rounded=0;whiteSpace=wrap;html=1;fillColor=#d5e8d4;strokeColor=#82b366;" vertex="1" parent="Hx9Hivt2Ttf5M3OkNa_k-211">
          <mxGeometry y="135" width="120" height="40" as="geometry" />
        </mxCell>
        <mxCell id="Hx9Hivt2Ttf5M3OkNa_k-43" value="Dialog" style="rounded=0;whiteSpace=wrap;html=1;fillColor=#e1d5e7;strokeColor=default;fillStyle=dots;" vertex="1" parent="Hx9Hivt2Ttf5M3OkNa_k-211">
          <mxGeometry y="185" width="120" height="40" as="geometry" />
        </mxCell>
        <mxCell id="Hx9Hivt2Ttf5M3OkNa_k-44" value="Popup/Snackbar" style="rounded=0;whiteSpace=wrap;html=1;fillColor=#dae8fc;strokeColor=#6c8ebf;fillStyle=cross-hatch;" vertex="1" parent="Hx9Hivt2Ttf5M3OkNa_k-211">
          <mxGeometry y="235" width="120" height="40" as="geometry" />
        </mxCell>
        <mxCell id="Hx9Hivt2Ttf5M3OkNa_k-120" value="" style="endArrow=classic;html=1;rounded=0;strokeColor=#00FFFF;" edge="1" parent="Hx9Hivt2Ttf5M3OkNa_k-211">
          <mxGeometry width="50" height="50" relative="1" as="geometry">
            <mxPoint x="20" y="315" as="sourcePoint" />
            <mxPoint x="100" y="315" as="targetPoint" />
          </mxGeometry>
        </mxCell>
        <mxCell id="Hx9Hivt2Ttf5M3OkNa_k-121" value="" style="endArrow=classic;html=1;rounded=0;strokeColor=#FF33FF;" edge="1" parent="Hx9Hivt2Ttf5M3OkNa_k-211">
          <mxGeometry width="50" height="50" relative="1" as="geometry">
            <mxPoint x="20" y="325" as="sourcePoint" />
            <mxPoint x="100" y="325" as="targetPoint" />
          </mxGeometry>
        </mxCell>
        <mxCell id="Hx9Hivt2Ttf5M3OkNa_k-122" value="Interactions" style="text;html=1;align=center;verticalAlign=middle;whiteSpace=wrap;rounded=0;" vertex="1" parent="Hx9Hivt2Ttf5M3OkNa_k-211">
          <mxGeometry y="285" width="60" height="30" as="geometry" />
        </mxCell>
      </root>
    </mxGraphModel>
  </diagram>
</mxfile>
